<?xml version="1.0" encoding="UTF-8" standalone="no"?>
<!-- Created with Inkscape (http://www.inkscape.org/) -->

<svg
   width="64mm"
   height="64mm"
   viewBox="0 0 64 64"
   version="1.1"
   id="svg5"
   inkscape:version="1.1 (c68e22c387, 2021-05-23)"
   sodipodi:docname="sudoku_logo.svg"
   xmlns:inkscape="http://www.inkscape.org/namespaces/inkscape"
   xmlns:sodipodi="http://sodipodi.sourceforge.net/DTD/sodipodi-0.dtd"
   xmlns="http://www.w3.org/2000/svg"
   xmlns:svg="http://www.w3.org/2000/svg">
  <sodipodi:namedview
     id="namedview7"
     pagecolor="#ffffff"
     bordercolor="#666666"
     borderopacity="1.0"
     inkscape:pageshadow="2"
     inkscape:pageopacity="0.0"
     inkscape:pagecheckerboard="0"
     inkscape:document-units="mm"
     showgrid="false"
     inkscape:zoom="1.6017536"
     inkscape:cx="152.02088"
     inkscape:cy="162.00993"
     inkscape:window-width="2560"
     inkscape:window-height="1377"
     inkscape:window-x="-8"
     inkscape:window-y="-8"
     inkscape:window-maximized="1"
     inkscape:current-layer="g21064" />
  <defs
     id="defs2" />
  <g
     inkscape:label="Layer 1"
     inkscape:groupmode="layer"
     id="layer1">
    <g
       id="g21064"
       transform="translate(3.2629681,3.26297)">
      <rect
         style="fill:#999999;stroke:none;stroke-width:1.84198;stroke-linecap:round"
         id="rect846"
         width="19.15802"
         height="19.15802"
         x="0"
         y="0"
         ry="0" />
      <rect
         style="fill:#666666;stroke:none;stroke-width:1.84198;stroke-linecap:round"
         id="rect846-7"
         width="19.15802"
         height="19.15802"
         x="19.15802"
         y="0"
         ry="0" />
      <rect
         style="fill:#999999;stroke:none;stroke-width:1.84198;stroke-linecap:round"
         id="rect846-7-0"
         width="19.15802"
         height="19.15802"
         x="38.31604"
         y="4.7683716e-07"
         ry="0" />
      <rect
         style="fill:#666666;stroke:none;stroke-width:1.84198;stroke-linecap:round"
         id="rect846-4"
         width="19.15802"
         height="19.15802"
         x="0"
         y="19.15802"
         ry="0" />
      <rect
         style="fill:#999999;stroke:none;stroke-width:1.84198;stroke-linecap:round"
         id="rect846-7-4"
         width="19.15802"
         height="19.15802"
         x="19.15802"
         y="19.15802"
         ry="0" />
      <rect
         style="fill:#666666;stroke:none;stroke-width:1.84198;stroke-linecap:round"
         id="rect846-7-0-0"
         width="19.15802"
         height="19.15802"
         x="38.31604"
         y="19.15802"
         ry="0" />
      <rect
         style="fill:#999999;stroke:none;stroke-width:1.84198;stroke-linecap:round"
         id="rect846-6"
         width="19.15802"
         height="19.15802"
         x="7.1054274e-15"
         y="38.31604"
         ry="0" />
      <rect
         style="fill:#666666;stroke:none;stroke-width:1.84198;stroke-linecap:round"
         id="rect846-7-3"
         width="19.15802"
         height="19.15802"
         x="19.15802"
         y="38.31604"
         ry="0" />
      <rect
         style="fill:#999999;stroke:none;stroke-width:1.84198;stroke-linecap:round"
         id="rect846-7-0-4"
         width="19.15802"
         height="19.15802"
         x="38.316044"
         y="38.31604"
         ry="0" />
      <g
         aria-label="S"
         id="text1650"
         style="font-size:10.5833px;line-height:1.25;font-family:Arial;-inkscape-font-specification:Arial;stroke-width:0.264583;stroke:#ffffff"
         transform="matrix(2.2881443,0,0,2.2881443,90.80708,41.546033)">
        <path
           d="m -33.300009,-12.576786 q 0,0.527098 -0.19637,0.925005 -0.19637,0.397907 -0.532265,0.666624 -0.335896,0.263549 -0.78548,0.397907 -0.449583,0.134359 -0.961178,0.134359 -0.346231,0 -0.645954,-0.05684 -0.294554,-0.05684 -0.52193,-0.134359 -0.227376,-0.08268 -0.382404,-0.170531 -0.149862,-0.08785 -0.217041,-0.155029 -0.06718,-0.06718 -0.09819,-0.191202 -0.02584,-0.129191 -0.02584,-0.366902 0,-0.160196 0.01034,-0.268716 0.01033,-0.108521 0.03101,-0.1757 0.02584,-0.06718 0.06201,-0.09302 0.04134,-0.03101 0.09302,-0.03101 0.07235,0 0.201538,0.08785 0.134358,0.08268 0.341063,0.186034 0.206705,0.103353 0.490924,0.191203 0.289388,0.08268 0.666624,0.08268 0.248046,0 0.444416,-0.05684 0.19637,-0.06201 0.330728,-0.170532 0.139526,-0.10852 0.211873,-0.268716 0.07235,-0.160197 0.07235,-0.356567 0,-0.227375 -0.124023,-0.387572 -0.124023,-0.165364 -0.325561,-0.289387 -0.19637,-0.12919 -0.449583,-0.237711 -0.253214,-0.113687 -0.521931,-0.23771 -0.268716,-0.124024 -0.52193,-0.279052 -0.253214,-0.160197 -0.454751,-0.377237 -0.19637,-0.222208 -0.320393,-0.52193 -0.124023,-0.299723 -0.124023,-0.718301 0,-0.480589 0.175699,-0.842323 0.180867,-0.366901 0.48059,-0.604612 0.30489,-0.242878 0.713132,-0.361734 0.41341,-0.118855 0.873329,-0.118855 0.237711,0 0.475422,0.03617 0.237711,0.03617 0.444416,0.09819 0.206705,0.06201 0.366901,0.139526 0.160197,0.07751 0.211873,0.129191 0.05168,0.05168 0.06718,0.08785 0.02067,0.03617 0.03101,0.09818 0.0155,0.05684 0.02067,0.149861 0.0052,0.08785 0.0052,0.222208 0,0.149861 -0.01033,0.253214 -0.0052,0.103353 -0.02584,0.170532 -0.0155,0.06718 -0.05168,0.09819 -0.03101,0.031 -0.08785,0.031 -0.05684,0 -0.180867,-0.07235 -0.124023,-0.07235 -0.30489,-0.155029 -0.180867,-0.08785 -0.418578,-0.155029 -0.237711,-0.07235 -0.52193,-0.07235 -0.222208,0 -0.387572,0.05684 -0.165364,0.05168 -0.279052,0.149861 -0.10852,0.09302 -0.165364,0.227376 -0.05168,0.134358 -0.05168,0.284219 0,0.222208 0.118856,0.387572 0.124023,0.160197 0.32556,0.289387 0.206705,0.124023 0.465087,0.237711 0.258381,0.10852 0.527098,0.232543 0.268716,0.124024 0.527098,0.28422 0.258381,0.155029 0.459918,0.377237 0.201538,0.21704 0.325561,0.516762 0.124023,0.294555 0.124023,0.69763 z"
           style="font-weight:bold;font-family:Calibri;-inkscape-font-specification:'Calibri Bold';stroke:#ffffff"
           id="path3778" />
      </g>
      <g
         aria-label="U"
         id="text4087"
         style="font-size:10.5833px;line-height:1.25;font-family:Arial;-inkscape-font-specification:Arial;stroke-width:0.264583;stroke:#ffffff"
         transform="matrix(1.9433018,0,0,1.9433018,86.892959,-8.6135287)">
        <path
           d="m -33.102984,5.8041248 h 1.529618 v 4.1030957 q 0,0.9766815 0.05684,1.2660685 0.09819,0.465086 0.465087,0.749306 0.372069,0.279052 1.012855,0.279052 0.651121,0 0.981849,-0.263549 0.330728,-0.268717 0.397907,-0.656289 0.06718,-0.387572 0.06718,-1.2867389 V 5.8041248 h 1.529618 v 3.9790726 q 0,1.3642536 -0.124023,1.9275246 -0.124023,0.563272 -0.459919,0.950844 -0.330728,0.387572 -0.888832,0.620115 -0.558104,0.227375 -1.457271,0.227375 -1.085201,0 -1.648473,-0.248046 -0.558103,-0.253213 -0.883664,-0.651121 -0.32556,-0.403075 -0.428913,-0.842323 -0.149861,-0.651121 -0.149861,-1.9223571 z"
           style="font-weight:bold;-inkscape-font-specification:'Arial Bold';stroke:#ffffff"
           id="path17374" />
      </g>
      <g
         aria-label="U"
         id="text4087-0"
         style="font-size:10.5833px;line-height:1.25;font-family:Arial;-inkscape-font-specification:Arial;stroke-width:0.264583;stroke:#ffffff"
         transform="matrix(1.9433018,0,0,1.9433018,87.036146,29.467923)">
        <path
           d="m -33.102984,5.8041248 h 1.529618 v 4.1030957 q 0,0.9766815 0.05684,1.2660685 0.09819,0.465086 0.465087,0.749306 0.372069,0.279052 1.012855,0.279052 0.651121,0 0.981849,-0.263549 0.330728,-0.268717 0.397907,-0.656289 0.06718,-0.387572 0.06718,-1.2867389 V 5.8041248 h 1.529618 v 3.9790726 q 0,1.3642536 -0.124023,1.9275246 -0.124023,0.563272 -0.459919,0.950844 -0.330728,0.387572 -0.888832,0.620115 -0.558104,0.227375 -1.457271,0.227375 -1.085201,0 -1.648473,-0.248046 -0.558103,-0.253213 -0.883664,-0.651121 -0.32556,-0.403075 -0.428913,-0.842323 -0.149861,-0.651121 -0.149861,-1.9223571 z"
           style="font-weight:bold;-inkscape-font-specification:'Arial Bold';stroke:#ffffff"
           id="path17374-2" />
      </g>
      <g
         aria-label="D"
         id="text8749"
         style="font-size:10.5833px;line-height:1.25;font-family:Arial;-inkscape-font-specification:Arial;stroke-width:0.264583;stroke:#ffffff"
         transform="matrix(2.0902137,0,0,2.0902137,66.050365,42.900487)">
        <path
           d="m -21.039417,-10.714228 h 2.795686 q 0.945676,0 1.441768,0.144694 0.666624,0.196369 1.142045,0.6976292 0.475422,0.5012598 0.723468,1.2298952 0.248046,0.7234677 0.248046,1.7879988 0,0.9353405 -0.232543,1.6122996 -0.28422,0.8268203 -0.811317,1.3384153 -0.397908,0.387572 -1.074867,0.6046124 -0.506427,0.1601964 -1.353918,0.1601964 h -2.878368 z m 1.529617,1.2815715 v 5.0177656 h 1.142046 q 0.640786,0 0.925005,-0.072347 0.372069,-0.093017 0.614948,-0.3152252 0.248046,-0.222208 0.403075,-0.7286354 0.155028,-0.511595 0.155028,-1.3900916 0,-0.8784966 -0.155028,-1.3487506 -0.155029,-0.470254 -0.434081,-0.733803 -0.279052,-0.263549 -0.707965,-0.3565662 -0.320393,-0.072347 -1.255733,-0.072347 z"
           style="font-weight:bold;-inkscape-font-specification:'Arial Bold';stroke:#ffffff"
           id="path17353" />
      </g>
      <g
         aria-label="O"
         id="text14165"
         style="font-size:10.5833px;line-height:1.25;font-family:Arial;-inkscape-font-specification:Arial;stroke-width:0.264583;stroke:#ffffff"
         transform="matrix(2.0542569,0,0,2.0542569,114.3072,-17.758161)">
        <path
           d="m -35.880459,22.688003 q 0,-1.157548 0.346231,-1.943027 0.258381,-0.578774 0.702797,-1.038693 0.449584,-0.459919 0.981849,-0.682127 0.707965,-0.299722 1.63297,-0.299722 1.674311,0 2.676831,1.038693 1.007687,1.038693 1.007687,2.888703 0,1.834507 -0.997352,2.8732 -0.997352,1.033526 -2.666495,1.033526 -1.689814,0 -2.687166,-1.028358 -0.997352,-1.033525 -0.997352,-2.842195 z m 1.576126,-0.05168 q 0,1.286739 0.594277,1.953363 0.594277,0.661456 1.508947,0.661456 0.91467,0 1.498612,-0.656288 0.589109,-0.661457 0.589109,-1.979201 0,-1.302242 -0.573606,-1.943028 -0.568439,-0.640786 -1.514115,-0.640786 -0.945675,0 -1.52445,0.651121 -0.578774,0.645954 -0.578774,1.953363 z"
           style="font-weight:bold;-inkscape-font-specification:'Arial Bold';stroke:#ffffff"
           id="path17395" />
      </g>
      <g
         aria-label="K"
         id="text15357"
         style="font-weight:bold;font-size:10.5833px;line-height:1.25;font-family:Arial;-inkscape-font-specification:'Arial Bold';stroke-width:0.264583;stroke:#ffffff"
         transform="matrix(1.9693173,0,0,1.9693173,45.626703,-13.226339)">
        <path
           d="m -21.509131,34.853725 v -7.57574 h 1.529617 v 3.364125 l 3.090241,-3.364125 h 2.056716 l -2.85253,2.950714 3.007559,4.625026 h -1.979202 l -2.082553,-3.555327 -1.240231,1.266069 v 2.289258 z"
           id="path17416"
           style="stroke:#ffffff" />
      </g>
      <g
         aria-label="1"
         id="text17776"
         style="font-size:10.5833px;line-height:1.25;font-family:Arial;-inkscape-font-specification:Arial;fill:#b3b3b3;stroke-width:0.264583"
         transform="translate(91.842047,-2.8081201)">
        <path
           d="m -43.134406,16.683537 h -0.930172 v -5.927268 q -0.335896,0.320392 -0.883665,0.640785 -0.5426,0.320393 -0.976681,0.48059 v -0.899167 q 0.780312,-0.366902 1.364253,-0.888832 0.583942,-0.5219305 0.826821,-1.0128551 h 0.599444 z"
           id="path21010" />
      </g>
      <g
         aria-label="4"
         id="text19034"
         style="font-size:10.5833px;line-height:1.25;font-family:Arial;-inkscape-font-specification:Arial;fill:#b3b3b3;stroke-width:0.264583"
         transform="translate(86.39099,28.246385)">
        <path
           d="m -38.370463,23.951612 v -1.813837 h -3.28661 v -0.852658 l 3.457142,-4.909245 h 0.759641 v 4.909245 h 1.02319 v 0.852658 h -1.02319 v 1.813837 z m 0,-2.666495 v -3.415801 l -2.37194,3.415801 z"
           id="path21013" />
      </g>
      <g
         aria-label="6"
         id="text19500"
         style="font-size:10.5833px;line-height:1.25;font-family:Arial;-inkscape-font-specification:Arial;fill:#b3b3b3;stroke-width:0.264583"
         transform="translate(48.233593,-1.9822024)">
        <path
           d="m -37.186356,28.472427 -0.925005,0.07235 q -0.124023,-0.547768 -0.351399,-0.795814 -0.377236,-0.397908 -0.930172,-0.397908 -0.444416,0 -0.780312,0.248047 -0.439248,0.320392 -0.692462,0.93534 -0.253214,0.614948 -0.263549,1.751826 0.335896,-0.511596 0.821653,-0.759642 0.485757,-0.248046 1.018022,-0.248046 0.930173,0 1.581294,0.687295 0.656288,0.682126 0.656288,1.767328 0,0.713132 -0.310057,1.32808 -0.30489,0.60978 -0.842323,0.935341 -0.537433,0.32556 -1.21956,0.32556 -1.162716,0 -1.896519,-0.852658 -0.733803,-0.857826 -0.733803,-2.821525 0,-2.196241 0.811317,-3.193593 0.707965,-0.868161 1.906854,-0.868161 0.894,0 1.462439,0.50126 0.573606,0.501259 0.687294,1.384924 z m -3.798206,3.26594 q 0,0.480589 0.201538,0.919837 0.206705,0.439248 0.573607,0.671792 0.366901,0.227375 0.769976,0.227375 0.589109,0 1.012855,-0.475421 0.423745,-0.475422 0.423745,-1.291907 0,-0.785479 -0.418578,-1.235063 -0.418577,-0.454751 -1.054195,-0.454751 -0.630451,0 -1.069699,0.454751 -0.439249,0.449584 -0.439249,1.183387 z"
           id="path21016" />
      </g>
    </g>
  </g>
</svg>
