<?xml version="1.0" standalone="no"?>
<!DOCTYPE svg PUBLIC "-//W3C//DTD SVG 20010904//EN"
 "http://www.w3.org/TR/2001/REC-SVG-20010904/DTD/svg10.dtd">
<svg version="1.0" xmlns="http://www.w3.org/2000/svg"
 width="700.000000pt" height="700.000000pt" viewBox="0 0 700.000000 700.000000"
 preserveAspectRatio="xMidYMid meet">
<metadata>
Created by potrace 1.14, written by Peter Selinger 2001-2017
</metadata>
<g transform="translate(0.000000,700.000000) scale(0.100000,-0.100000)"
fill="#000000" stroke="none">
<path d="M2460 5595 l0 -1045 1040 0 1040 0 0 1045 0 1045 -1040 0 -1040 0 0
-1045z m720 283 c0 -277 5 -545 10 -596 13 -138 55 -200 162 -238 51 -18 176
-21 236 -5 54 15 110 64 136 121 20 44 21 62 24 633 l3 587 195 0 195 0 -4
-607 c-4 -670 -5 -684 -68 -811 -59 -121 -187 -216 -349 -259 -91 -24 -394
-24 -495 0 -202 49 -353 190 -400 373 -26 105 -35 308 -35 810 l0 494 195 0
195 0 0 -502z"/>
<path d="M2850 5903 c0 -453 12 -714 35 -807 21 -82 60 -148 119 -204 118
-112 222 -144 466 -145 126 -1 180 3 230 16 148 39 262 122 314 229 56 114 58
144 63 761 l5 567 -136 0 -135 0 -4 -567 c-3 -629 -2 -611 -70 -689 -48 -55
-94 -79 -178 -94 -172 -31 -335 34 -399 160 -34 66 -39 161 -40 688 l0 502
-135 0 -135 0 0 -417z"/>
<path d="M1277 6395 c-196 -50 -327 -186 -345 -361 -10 -99 2 -196 32 -259 57
-116 144 -184 366 -285 155 -70 233 -120 267 -171 75 -113 34 -262 -89 -326
-46 -23 -68 -28 -159 -31 -131 -5 -198 10 -334 77 -55 27 -103 47 -107 45 -5
-3 -8 -48 -8 -100 0 -88 2 -97 25 -120 32 -32 109 -66 205 -90 101 -26 316
-26 410 0 237 65 381 240 380 466 -1 131 -36 217 -126 307 -54 53 -85 73 -221
138 -247 119 -262 127 -308 176 -82 87 -85 194 -9 279 91 101 285 101 485 -1
32 -16 63 -29 69 -29 6 0 10 38 10 99 0 119 -3 122 -132 166 -72 25 -101 29
-218 31 -94 3 -153 -1 -193 -11z"/>
<path d="M360 3500 l0 -1040 1045 0 1045 0 0 1040 0 1040 -1045 0 -1045 0 0
-1040z m1089 430 c51 -25 96 -81 111 -136 7 -25 11 -46 9 -48 -2 -2 -27 -6
-54 -9 l-51 -6 -21 47 c-25 54 -65 82 -118 82 -95 0 -165 -89 -181 -229 l-7
-65 29 28 c68 65 185 86 269 47 55 -25 121 -99 135 -153 18 -64 8 -194 -18
-244 -82 -160 -291 -193 -421 -66 -79 77 -95 132 -96 327 0 169 8 221 51 305
20 41 48 73 97 110 56 42 194 47 266 10z"/>
<path d="M1243 3543 c-55 -31 -77 -69 -81 -143 -5 -75 17 -132 64 -169 117
-92 258 13 242 180 -11 115 -129 184 -225 132z"/>
<path d="M4550 3500 l0 -1040 1045 0 1045 0 0 1040 0 1040 -1045 0 -1045 0 0
-1040z m1285 891 c175 -36 304 -108 423 -236 86 -92 153 -217 190 -353 24 -89
26 -113 26 -302 1 -180 -2 -216 -22 -293 -91 -360 -347 -580 -718 -617 -190
-19 -368 8 -519 79 -322 152 -486 499 -446 943 18 203 53 312 147 455 120 181
299 295 521 333 94 15 303 11 398 -9z"/>
<path d="M5481 4339 c-183 -23 -351 -110 -452 -231 -93 -112 -137 -199 -172
-337 -18 -74 -21 -113 -21 -281 0 -228 13 -293 90 -450 87 -176 253 -309 451
-361 98 -26 291 -36 393 -20 386 59 615 329 646 761 18 258 -51 507 -185 667
-167 199 -443 292 -750 252z m351 -267 c80 -36 166 -114 207 -186 55 -97 73
-176 79 -342 5 -180 -11 -280 -63 -392 -137 -292 -528 -362 -764 -137 -102 97
-155 232 -167 424 -19 296 76 519 265 620 82 44 120 51 256 47 110 -2 126 -5
187 -34z"/>
<path d="M5515 4036 c-114 -28 -218 -112 -269 -219 -36 -77 -56 -191 -56 -319
1 -263 84 -429 258 -511 63 -30 74 -32 177 -32 102 0 115 2 175 31 119 56 200
164 237 311 23 95 23 325 0 413 -37 140 -105 235 -204 287 -97 51 -210 65
-318 39z"/>
<path d="M2800 3535 l0 -837 413 5 c458 4 476 7 617 74 155 74 279 245 332
458 31 123 33 446 4 570 -69 299 -232 485 -473 542 -54 12 -151 17 -480 20
l-413 5 0 -837z m785 582 c161 -45 257 -165 292 -364 17 -101 13 -411 -8 -498
-17 -74 -66 -176 -102 -213 -87 -91 -171 -112 -464 -112 l-213 0 0 606 0 607
223 -6 c143 -4 240 -11 272 -20z"/>
<path d="M2460 1405 l0 -1045 1040 0 1040 0 0 1045 0 1045 -1040 0 -1040 0 0
-1045z m740 266 c0 -329 4 -570 10 -602 24 -124 110 -197 248 -207 131 -9 226
29 271 108 33 59 40 198 41 763 l0 487 195 0 195 0 0 -492 c0 -486 -9 -725
-31 -816 -47 -193 -200 -334 -411 -376 -101 -21 -348 -21 -455 -1 -220 42
-380 191 -430 403 -14 56 -17 163 -20 675 l-4 607 195 0 196 0 0 -549z"/>
<path d="M2873 1598 c3 -360 9 -585 16 -623 38 -200 187 -343 396 -380 109
-19 316 -19 413 1 196 40 326 158 369 334 20 84 34 464 31 865 l-3 360 -132 3
-133 3 0 -493 c0 -649 -7 -703 -92 -788 -60 -60 -108 -75 -243 -75 -116 0
-123 1 -189 34 -50 24 -76 45 -99 78 -63 89 -61 67 -67 678 l-5 560 -133 3
-134 3 5 -563z"/>
<path d="M747 2183 c-4 -3 -7 -359 -7 -790 l0 -783 135 0 135 0 0 238 0 237
154 154 154 154 19 -30 c10 -17 113 -193 228 -392 l210 -360 178 -1 c140 0
177 3 171 13 -4 6 -146 225 -316 486 l-308 474 263 269 c144 148 275 285 290
304 l29 34 -175 0 c-152 0 -177 -2 -195 -17 -10 -10 -172 -184 -358 -388
l-339 -369 -3 387 -2 387 -128 0 c-71 0 -132 -3 -135 -7z"/>
</g>
</svg>
